<svg width="22" height="22" viewBox="0 0 22 22" fill="none" xmlns="http://www.w3.org/2000/svg">
<g opacity="0.7">
<path d="M1.42652e-06 11C1.69212e-06 4.92381 4.92381 -7.46424e-07 11 -4.80825e-07C17.0762 -2.15227e-07 22 4.92381 22 11C22 17.0762 17.0762 22 11 22C4.92381 22 1.16092e-06 17.0762 1.42652e-06 11ZM21.3014 11C21.3014 5.30802 16.6919 0.698612 11 0.698612C5.30814 0.698611 0.698616 5.30813 0.698616 11C0.698615 16.6919 5.30814 21.3014 11 21.3014C16.6919 21.3014 21.3014 16.6919 21.3014 11Z" fill="#599296"/>
<path d="M8.41559 15.4345L12.8507 10.9997L8.41559 6.56482L8.90456 6.04102L13.8284 10.9997L8.90456 15.9583L8.41559 15.4345Z" fill="#599296"/>
</g>
</svg>
