<svg width="1440" height="834" viewBox="0 0 1440 834" fill="none" xmlns="http://www.w3.org/2000/svg" xmlns:xlink="http://www.w3.org/1999/xlink">
<g clip-path="url(#clip0_9_9)">
<path d="M634.222 668.877C634.499 668.924 634.761 668.758 634.846 668.493C634.932 668.229 634.816 667.941 634.563 667.818C625.008 662.847 619.713 659.459 617.254 654.659C614.793 649.86 615.132 643.584 616.674 632.924C616.722 632.647 616.556 632.385 616.291 632.3C616.026 632.214 615.739 632.33 615.616 632.583C610.645 642.138 607.256 647.433 602.457 649.892C597.657 652.353 591.381 652.014 580.721 650.472C580.457 650.428 580.195 650.594 580.097 650.855C580.012 651.119 580.116 651.403 580.368 651.526C598.705 661.496 601.422 664.681 598.269 686.427C598.222 686.703 598.388 686.966 598.653 687.051C598.917 687.136 599.205 687.02 599.328 686.768C604.299 677.212 607.687 671.918 612.487 669.458C617.282 667.009 623.574 667.339 634.222 668.878L634.222 668.877ZM599.823 683.419C602.166 664.92 599.019 660.609 583.605 652.013C601.791 654.38 606.461 652.017 615.13 635.945C612.787 654.014 615.179 658.679 631.217 667.325C613.137 664.977 608.467 667.381 599.823 683.419Z" fill="#9FC1C3" fill-opacity="0.46"/>
<path d="M605.245 626.515C605.285 626.737 605.441 626.899 605.63 626.96C605.718 626.988 605.802 626.987 605.89 626.973C606.199 626.92 606.406 626.625 606.361 626.332L605.25 619.589C605.196 619.28 604.902 619.073 604.596 619.114C604.287 619.168 604.081 619.463 604.126 619.756L605.245 626.515Z" fill="#9FC1C3" fill-opacity="0.46"/>
<path d="M603.042 613.019C603.082 613.24 603.239 613.402 603.428 613.463C603.516 613.492 603.6 613.49 603.687 613.477C603.997 613.423 604.203 613.129 604.162 612.823L603.185 606.833C603.131 606.523 602.836 606.317 602.531 606.358C602.222 606.412 602.015 606.706 602.057 607.012L603.042 613.019Z" fill="#9FC1C3" fill-opacity="0.46"/>
<path d="M617.513 624.277C617.816 624.374 618.132 624.212 618.229 623.91L627.821 594.138C627.906 593.831 627.743 593.515 627.454 593.422C627.164 593.328 626.835 593.486 626.738 593.789L617.142 623.572C617.048 623.862 617.211 624.179 617.513 624.277L617.513 624.277Z" fill="#9FC1C3" fill-opacity="0.46"/>
<path d="M624.834 633.855C624.906 633.933 624.99 633.975 625.078 634.003C625.267 634.064 625.489 634.024 625.633 633.876L639.826 620.613C640.05 620.394 640.067 620.037 639.847 619.814C639.627 619.59 639.27 619.573 639.047 619.793L624.854 633.056C624.636 633.262 624.618 633.618 624.834 633.855L624.834 633.855Z" fill="#9FC1C3" fill-opacity="0.46"/>
<path d="M634.087 650.427C634.143 650.599 634.283 650.727 634.446 650.78C634.56 650.816 634.685 650.815 634.793 650.78L656.821 643.338C657.117 643.239 657.277 642.915 657.178 642.619C657.078 642.323 656.754 642.162 656.458 642.262L634.432 649.704C634.148 649.807 633.988 650.131 634.087 650.427L634.087 650.427Z" fill="#9FC1C3" fill-opacity="0.46"/>
<path d="M638.931 662.34C638.9 662.608 639.07 662.857 639.323 662.938C639.361 662.951 639.398 662.963 639.44 662.963L663.407 665.564C663.717 665.594 663.996 665.378 664.026 665.068C664.056 664.757 663.84 664.479 663.529 664.449L639.563 661.847C639.244 661.801 638.962 662.029 638.931 662.34L638.931 662.34Z" fill="#9FC1C3" fill-opacity="0.46"/>
<path d="M642.085 676.085C641.975 676.384 642.125 676.696 642.423 676.807L659.06 682.946L659.086 682.954C659.376 683.047 659.688 682.898 659.794 682.611C659.904 682.313 659.754 682.001 659.456 681.89L642.819 675.751C642.534 675.645 642.196 675.787 642.085 676.085Z" fill="#9FC1C3" fill-opacity="0.46"/>
<path d="M636.581 700.118L624.431 682.946C624.249 682.693 623.892 682.634 623.638 682.816C623.385 682.998 623.326 683.355 623.508 683.609L635.658 700.781C635.735 700.889 635.836 700.963 635.949 701C636.113 701.053 636.302 701.03 636.446 700.923C636.704 700.729 636.764 700.373 636.581 700.118L636.581 700.118Z" fill="#9FC1C3" fill-opacity="0.46"/>
<path d="M614.125 688.166C614.009 687.879 613.681 687.731 613.393 687.847C613.106 687.963 612.958 688.291 613.074 688.579L625.8 720.545C625.861 720.703 626 720.831 626.151 720.88C626.277 720.921 626.402 720.919 626.532 720.864C626.819 720.748 626.967 720.42 626.851 720.132L614.125 688.166Z" fill="#9FC1C3" fill-opacity="0.46"/>
<path d="M605.451 693.622C605.385 693.309 605.086 693.115 604.786 693.185C604.485 693.255 604.279 693.551 604.349 693.851L607.099 706.993C607.143 707.203 607.287 707.36 607.476 707.421C607.563 707.449 607.66 707.452 607.765 707.43C608.066 707.36 608.271 707.065 608.201 706.764L605.451 693.622Z" fill="#9FC1C3" fill-opacity="0.46"/>
<path d="M594.13 694.829C593.827 694.731 593.511 694.893 593.414 695.196L585.889 718.551C585.792 718.853 585.954 719.17 586.256 719.267C586.559 719.364 586.875 719.202 586.972 718.9L594.497 695.545C594.594 695.242 594.432 694.925 594.13 694.828L594.13 694.829Z" fill="#9FC1C3" fill-opacity="0.46"/>
<path d="M589.174 684.386C588.987 684.145 588.627 684.098 588.385 684.285L565.461 702.023C565.221 702.209 565.174 702.57 565.361 702.811C565.428 702.903 565.534 702.964 565.635 702.997C565.812 703.054 565.999 703.031 566.153 702.9L589.074 685.173C589.327 684.99 589.37 684.643 589.174 684.385L589.174 684.386Z" fill="#9FC1C3" fill-opacity="0.46"/>
<path d="M583.669 671.594C583.569 671.298 583.245 671.138 582.949 671.237L551.405 681.789C551.109 681.889 550.949 682.213 551.048 682.509C551.105 682.68 551.244 682.809 551.407 682.861C551.521 682.898 551.646 682.897 551.755 682.862L583.298 672.31C583.608 672.214 583.767 671.89 583.668 671.594L583.669 671.594Z" fill="#9FC1C3" fill-opacity="0.46"/>
<path d="M571.473 654.824C571.516 654.518 571.303 654.227 570.998 654.184L555.891 651.89C555.585 651.847 555.294 652.06 555.251 652.365C555.203 652.642 555.382 652.908 555.634 652.989C555.659 652.998 555.697 653.01 555.726 653.005L570.833 655.299C571.139 655.342 571.426 655.143 571.473 654.824L571.473 654.824Z" fill="#9FC1C3" fill-opacity="0.46"/>
<path d="M578.244 643.26C578.471 643.333 578.717 643.259 578.866 643.057C579.056 642.812 579.007 642.448 578.745 642.267L556.972 625.945C556.728 625.754 556.363 625.804 556.182 626.066C555.992 626.31 556.041 626.674 556.303 626.856L578.087 643.181C578.134 643.21 578.193 643.244 578.243 643.26L578.244 643.26Z" fill="#9FC1C3" fill-opacity="0.46"/>
<path d="M590.054 638.857C590.127 638.978 590.236 639.069 590.362 639.11C590.513 639.158 590.685 639.144 590.827 639.051C591.101 638.889 591.186 638.54 591.02 638.278L581.45 622.299C581.288 622.025 580.94 621.94 580.678 622.106C580.403 622.268 580.318 622.616 580.484 622.878L590.054 638.857Z" fill="#9FC1C3" fill-opacity="0.46"/>
<path d="M599.066 635.808C599.126 635.966 599.257 636.078 599.408 636.127C599.534 636.167 599.673 636.17 599.802 636.115C600.089 635.999 600.224 635.667 600.095 635.375L587.509 605.568C587.393 605.28 587.061 605.145 586.769 605.274C586.481 605.39 586.346 605.722 586.475 606.014L599.066 635.808Z" fill="#9FC1C3" fill-opacity="0.46"/>
<path d="M564.585 666.656L557.074 667.603C556.769 667.643 556.542 667.918 556.578 668.236C556.601 668.465 556.767 668.644 556.968 668.709C557.044 668.733 557.123 668.745 557.211 668.732L564.722 667.785C565.028 667.745 565.255 667.47 565.219 667.152C565.17 666.831 564.891 666.616 564.586 666.656L564.585 666.656Z" fill="#9FC1C3" fill-opacity="0.46"/>
<path d="M571.641 666.216C571.664 666.446 571.829 666.625 572.031 666.689C572.106 666.714 572.186 666.726 572.274 666.712L576.992 666.146C577.297 666.106 577.524 665.831 577.488 665.513C577.447 665.208 577.172 664.981 576.855 665.017L572.137 665.583C571.827 665.637 571.6 665.911 571.641 666.216L571.641 666.216Z" fill="#9FC1C3" fill-opacity="0.46"/>
<path d="M654.54 697.835L650.43 693.966C650.206 693.755 649.842 693.763 649.631 693.987C649.42 694.211 649.428 694.576 649.652 694.787L653.761 698.656C653.824 698.718 653.896 698.755 653.972 698.779C654.173 698.844 654.398 698.791 654.56 698.635C654.771 698.411 654.759 698.06 654.54 697.835L654.54 697.835Z" fill="#9FC1C3" fill-opacity="0.46"/>
<path d="M643.65 687.592L635.571 679.981C635.347 679.77 634.982 679.778 634.771 680.002C634.56 680.226 634.568 680.591 634.792 680.801L642.871 688.413C642.934 688.475 643.006 688.511 643.082 688.536C643.283 688.601 643.509 688.548 643.671 688.392C643.886 688.155 643.873 687.804 643.65 687.592L643.65 687.592Z" fill="#9FC1C3" fill-opacity="0.46"/>
<path d="M653.555 626.749C653.707 626.798 653.891 626.787 654.036 626.682L657.723 624.308C657.985 624.142 658.057 623.79 657.891 623.528C657.725 623.265 657.373 623.194 657.11 623.36L653.424 625.733C653.162 625.899 653.09 626.252 653.256 626.514C653.328 626.634 653.442 626.712 653.555 626.749Z" fill="#9FC1C3" fill-opacity="0.46"/>
<path d="M627.897 642.828C627.97 642.949 628.084 643.027 628.197 643.064C628.348 643.112 628.532 643.102 628.678 642.996L648.228 630.417C648.49 630.251 648.562 629.898 648.396 629.636C648.23 629.374 647.878 629.302 647.616 629.468L628.07 642.035C627.815 642.218 627.731 642.566 627.897 642.829L627.897 642.828Z" fill="#9FC1C3" fill-opacity="0.46"/>
<path d="M101.5 605.5C44.8444 531.198 18.5978 485.712 0 385V833.5H384C417.155 808.511 355.438 708.646 268 686C252.293 681.932 148.152 648.396 101.5 605.5Z" stroke="#C2E1DD"/>
<path d="M90.5 605.5C33.8444 531.198 7.59781 485.712 -11 385V833.5H373C406.155 808.511 344.438 708.646 257 686C241.293 681.932 137.152 648.396 90.5 605.5Z" stroke="#C2E1DD"/>
<path d="M71.5 605.5C14.8444 531.198 -11.4022 485.712 -30 385V833.5H354C387.155 808.511 325.438 708.646 238 686C222.293 681.932 118.152 648.396 71.5 605.5Z" stroke="#C2E1DD"/>
<path d="M55.5 605.5C-1.15561 531.198 -27.4022 485.712 -46 385V833.5H338C371.155 808.511 309.438 708.646 222 686C206.293 681.932 102.152 648.396 55.5 605.5Z" stroke="#C2E1DD"/>
<path d="M43.5 605.5C-13.1556 531.198 -39.4022 485.712 -58 385V833.5H326C359.155 808.511 297.438 708.646 210 686C194.293 681.932 90.1519 648.396 43.5 605.5Z" stroke="#C2E1DD"/>
<path d="M15.5 605.5C-41.1556 531.198 -67.4022 485.712 -86 385V833.5H298C331.155 808.511 269.438 708.646 182 686C166.293 681.932 62.1519 648.396 15.5 605.5Z" stroke="#C2E1DD"/>
<path d="M-5.5 605.5C-62.1556 531.198 -88.4022 485.712 -107 385V833.5H277C310.155 808.511 248.438 708.646 161 686C145.293 681.932 41.1519 648.396 -5.5 605.5Z" stroke="#C2E1DD"/>
<path d="M-28.5 605.5C-85.1556 531.198 -111.402 485.712 -130 385V833.5H254C287.155 808.511 225.438 708.646 138 686C122.293 681.932 18.1519 648.396 -28.5 605.5Z" stroke="#C2E1DD"/>
<path d="M-53.5 605.5C-110.156 531.198 -136.402 485.712 -155 385V833.5H229C262.155 808.511 200.438 708.646 113 686C97.2934 681.932 -6.84811 648.396 -53.5 605.5Z" stroke="#C2E1DD"/>
<path d="M-73.5 605.5C-130.156 531.198 -156.402 485.712 -175 385V833.5H209C242.155 808.511 180.438 708.646 93 686C77.2934 681.932 -26.8481 648.396 -73.5 605.5Z" stroke="#C2E1DD"/>
<path d="M-95.5 607.5C-152.156 533.198 -178.402 487.712 -197 387V835.5H187C220.155 810.511 158.438 710.646 71 688C55.2934 683.932 -48.8481 650.396 -95.5 607.5Z" stroke="#C2E1DD"/>
<path d="M-118.5 607.5C-175.156 533.198 -201.402 487.712 -220 387V835.5H164C197.155 810.511 135.438 710.646 48 688C32.2934 683.932 -71.8481 650.396 -118.5 607.5Z" stroke="#C2E1DD"/>
<path d="M-140.5 607.5C-197.156 533.198 -223.402 487.712 -242 387V835.5H142C175.155 810.511 113.438 710.646 26 688C10.2934 683.932 -93.8481 650.396 -140.5 607.5Z" stroke="#C2E1DD"/>
<path d="M-153.5 607.5C-210.156 533.198 -236.402 487.712 -255 387V835.5H129C162.155 810.511 100.438 710.646 13 688C-2.7066 683.932 -106.848 650.396 -153.5 607.5Z" stroke="#C2E1DD"/>
<path d="M-173.5 607.5C-230.156 533.198 -256.402 487.712 -275 387V835.5H109C142.155 810.511 80.4378 710.646 -7 688C-22.7066 683.932 -126.848 650.396 -173.5 607.5Z" stroke="#C2E1DD"/>
<path d="M-189.5 607.5C-246.156 533.198 -272.402 487.712 -291 387V835.5H93C126.155 810.511 64.4378 710.646 -23 688C-38.7066 683.932 -142.848 650.396 -189.5 607.5Z" stroke="#C2E1DD"/>
<path d="M-202.5 607.5C-259.156 533.198 -285.402 487.712 -304 387V835.5H80C113.155 810.511 51.4378 710.646 -36 688C-51.7066 683.932 -155.848 650.396 -202.5 607.5Z" stroke="#C2E1DD"/>
<path d="M-211.5 607.5C-268.156 533.198 -294.402 487.712 -313 387V835.5H71C104.155 810.511 42.4378 710.646 -45 688C-60.7066 683.932 -164.848 650.396 -211.5 607.5Z" stroke="#C2E1DD"/>
<path d="M-225.5 605.5C-282.156 531.198 -308.402 485.712 -327 385V833.5H57C90.1547 808.511 28.4378 708.646 -59 686C-74.7066 681.932 -178.848 648.396 -225.5 605.5Z" stroke="#C2E1DD"/>
<path d="M-234.5 605.5C-291.156 531.198 -317.402 485.712 -336 385V833.5H48C81.1547 808.511 19.4378 708.646 -68 686C-83.7066 681.932 -187.848 648.396 -234.5 605.5Z" stroke="#C2E1DD"/>
<path d="M-243.5 605.5C-300.156 531.198 -326.402 485.712 -345 385V833.5H39C72.1547 808.511 10.4378 708.646 -77 686C-92.7066 681.932 -196.848 648.396 -243.5 605.5Z" stroke="#C2E1DD"/>
<path d="M-250.5 605.5C-307.156 531.198 -333.402 485.712 -352 385V833.5H32C65.1547 808.511 3.43777 708.646 -84 686C-99.7066 681.932 -203.848 648.396 -250.5 605.5Z" stroke="#C2E1DD"/>
<path d="M-259.5 605.5C-316.156 531.198 -342.402 485.712 -361 385V833.5H23C56.1547 808.511 -5.56223 708.646 -93 686C-108.707 681.932 -212.848 648.396 -259.5 605.5Z" stroke="#C2E1DD"/>
</g>
</svg>